<svg width="74" height="74" viewBox="0 0 74 74" fill="none" xmlns="http://www.w3.org/2000/svg">
<path d="M61 49.283H50.6232V55.4887C51.5172 54.6849 52.7944 54.1383 54.3589 54.1383C57.3921 54.1383 59.1801 56.0997 59.1801 59.283C59.1801 61.5338 58.3819 63.5595 56.4981 65.6495L54.2631 64.2347C55.6679 62.7878 56.6258 61.2122 56.6258 59.2508C56.6258 57.3859 55.6999 56.3891 54.0715 56.3891C52.7305 56.3891 51.4215 57.3215 50.6232 58.7685V67H48.037V61.5338C46.8876 62.5627 45.355 63.2058 43.4393 63.2058C40.1826 63.2058 37.4687 61.3408 37.4687 57.6431C37.4687 54.1383 39.8953 52.0804 44.046 52.0804C45.1315 52.0804 46.1213 52.209 46.9195 52.4019L46.696 54.7492C45.9617 54.5563 45.0677 54.4277 44.1098 54.4277C41.4917 54.4277 40.0549 55.5852 40.0549 57.7396C40.0549 59.8617 41.5236 60.8907 43.4393 60.8907C45.387 60.8907 47.0792 59.7974 48.037 58.4148V49.283H36V47H61V49.283Z" fill="#CB164A"/>
<path d="M15.625 59.25L16.543 63.5C10.043 58.625 5.54297 51.582 3.83597 43.707H0.667969C2.46097 52.707 7.58597 60.832 15.125 66.289L10.457 67.289L11.1249 70.332L20.7929 68.25L18.7109 58.582L15.6679 59.25L15.625 59.25Z" fill="#CB164A"/>
<path d="M57.1679 12.625L56.5429 9.74997C63.0429 14.625 67.5429 21.668 69.2929 29.543H72.4609C70.6679 20.543 65.5429 12.418 58.0039 6.96097L61.2539 6.25394L60.586 3.21094L52.293 5.00394L54.086 13.2969L57.129 12.629L57.1679 12.625Z" fill="#CB164A"/>
<path d="M68.168 33.0821H65.043L60.336 26.5821C59.793 25.7891 58.918 25.2891 57.961 25.2891C57.004 25.2891 56.086 25.7891 55.586 26.5821L51.336 33.0821H50.711V35.2071C50.711 35.5391 50.668 35.875 50.629 36.2071H53.047L58.004 28.6251L63.504 36.2071H68.211C69.211 36.2071 70.004 37 70.004 38.0001V68.3321C70.004 69.3321 69.211 70.1251 68.211 70.1251H30.086C29.086 70.1251 28.293 69.3321 28.293 68.3321V42.8321H25.168V68.3321C25.168 71.0391 27.375 73.2501 30.086 73.2501H68.211C70.918 73.2501 73.129 71.0431 73.129 68.3321V38.0001C73.129 35.2931 70.922 33.0821 68.211 33.0821H68.168Z" fill="#CB164A"/>
<path d="M23.75 11.707C23.25 13.414 22.168 16.707 20.707 20.957H27C25.207 16 24.207 13.25 23.793 11.707H23.75Z" fill="#CB164A"/>
<path d="M47.961 35.25V4.918C47.961 2.211 45.754 0 43.043 0H4.918C2.211 0 0 2.207 0 4.918V35.25C0 37.957 2.207 40.168 4.918 40.168H8.043L12.75 46.668C13.293 47.461 14.168 47.961 15.125 47.961C16.082 47.961 17 47.461 17.5 46.668L21.75 40.168H42.957C45.664 40.168 47.875 37.961 47.875 35.25H47.961ZM29.793 29.043L27.711 23.418H20.004L18.004 29.043H15.129L22.086 9.375H25.711L32.961 29.043H29.793Z" fill="#CB164A"/>
<rect x="8" y="6" width="31" height="26" fill="#CB164A"/>
<path d="M20.2489 23.5312L20.208 20.6797H20.6987L27.5679 14H30.5528L23.2337 21.0703H23.0293L20.2489 23.5312ZM18 29V9H20.4124V29H18ZM27.9768 29L21.8435 21.5781L23.5609 19.9766L31.0435 29H27.9768Z" fill="white"/>
</svg>
