<svg width="69" height="104" viewBox="0 0 69 104" fill="none" xmlns="http://www.w3.org/2000/svg">
<path d="M57.0589 57.4601C56.2881 57.4601 55.6574 56.8295 55.6574 56.0587V10.3288C55.6574 6.18047 52.2799 2.80293 48.1315 2.80293H6.60606C5.83525 2.80293 5.20459 2.17227 5.20459 1.40147C5.20459 0.63066 5.83525 0 6.60606 0H48.1315C53.8215 0 58.4603 4.63886 58.4603 10.3288V56.0587C58.4603 56.8295 57.8297 57.4601 57.0589 57.4601Z" fill="#CB164A"/>
<path d="M52.8542 68.6719H17.8175C17.6633 68.6719 17.5232 68.6439 17.383 68.6018C17.0607 68.6439 16.7384 68.6719 16.416 68.6719C12.548 68.6719 9.40869 65.5326 9.40869 61.6646V11.2118C9.40869 10.441 10.0394 9.8103 10.8102 9.8103C11.581 9.8103 12.2116 10.441 12.2116 11.2118V61.6646C12.2116 63.977 14.1036 65.869 16.416 65.869C18.7284 65.869 20.6204 63.977 20.6204 61.6646V56.0587C20.6204 55.2879 21.2511 54.6572 22.0219 54.6572H64.0659C64.8367 54.6572 65.4674 55.2879 65.4674 56.0587C65.4674 63.01 59.8054 68.6719 52.8542 68.6719ZM22.0219 65.869H52.8542C57.7873 65.869 61.8796 62.2111 62.5663 57.4602H23.4234V61.6646C23.4234 63.2342 22.9048 64.6917 22.0219 65.869Z" fill="#CB164A"/>
<path d="M10.8103 18.2191H2.40147C1.63066 18.2191 1 17.5884 1 16.8176V5.60587C1 2.50863 3.50863 0 6.60587 0C9.70311 0 12.2117 2.50863 12.2117 5.60587V16.8176C12.2117 17.5884 11.5811 18.2191 10.8103 18.2191ZM3.80293 15.4161H9.4088V5.60587C9.4088 4.06425 8.14748 2.80293 6.60587 2.80293C5.06425 2.80293 3.80293 4.06425 3.80293 5.60587V15.4161Z" fill="#CB164A"/>
<path d="M50.0517 47.6499H17.818C17.0472 47.6499 16.4165 47.0192 16.4165 46.2484C16.4165 45.4776 17.0472 44.8469 17.818 44.8469H50.0517C50.8225 44.8469 51.4532 45.4776 51.4532 46.2484C51.4532 47.0192 50.8225 47.6499 50.0517 47.6499Z" fill="#CB164A"/>
<path d="M50.0517 42.0439H17.818C17.0472 42.0439 16.4165 41.4132 16.4165 40.6424C16.4165 39.8716 17.0472 39.241 17.818 39.241H50.0517C50.8225 39.241 51.4532 39.8716 51.4532 40.6424C51.4532 41.4132 50.8225 42.0439 50.0517 42.0439Z" fill="#CB164A"/>
<path d="M50.0517 36.4382H17.818C17.0472 36.4382 16.4165 35.8075 16.4165 35.0367C16.4165 34.2659 17.0472 33.6353 17.818 33.6353H50.0517C50.8225 33.6353 51.4532 34.2659 51.4532 35.0367C51.4532 35.8075 50.8225 36.4382 50.0517 36.4382Z" fill="#CB164A"/>
<path d="M50.0517 30.8322H17.818C17.0472 30.8322 16.4165 30.2016 16.4165 29.4308C16.4165 28.66 17.0472 28.0293 17.818 28.0293H50.0517C50.8225 28.0293 51.4532 28.66 51.4532 29.4308C51.4532 30.2016 50.8225 30.8322 50.0517 30.8322Z" fill="#CB164A"/>
<path d="M50.0517 25.2265H17.818C17.0472 25.2265 16.4165 24.5959 16.4165 23.8251C16.4165 23.0542 17.0472 22.4236 17.818 22.4236H50.0517C50.8225 22.4236 51.4532 23.0542 51.4532 23.8251C51.4532 24.5959 50.8225 25.2265 50.0517 25.2265Z" fill="#CB164A"/>
<path d="M30.4312 19.6206H17.818C17.0472 19.6206 16.4165 18.9899 16.4165 18.2191C16.4165 17.4483 17.0472 16.8176 17.818 16.8176H30.4312C31.202 16.8176 31.8326 17.4483 31.8326 18.2191C31.8326 18.9899 31.202 19.6206 30.4312 19.6206Z" fill="#CB164A"/>
<rect y="51" width="69" height="37" fill="white"/>
<path opacity="0.2" d="M53.9062 83.75L43.125 95L25.875 90.5L10.7812 79.25L19.5895 60.8647L34.5 56.75L49.4105 60.8647L49.4859 61.25H38.8125L26.5057 73.7066C26.2769 73.9452 26.1025 74.2344 25.9954 74.5529C25.8883 74.8714 25.8512 75.211 25.887 75.5464C25.9227 75.8819 26.0303 76.2047 26.2018 76.4909C26.3733 76.777 26.6043 77.0193 26.8777 77.1997C31.5971 80.3469 38.0039 80.1303 43.125 74.75L53.9062 83.75Z" fill="#CB164A"/>
<path d="M68.5415 71.3497L61.6631 56.9891C61.4097 56.4605 61.059 55.9892 60.631 55.6021C60.2031 55.215 59.7062 54.9196 59.1688 54.7329C58.6315 54.5462 58.0641 54.4717 57.4992 54.5138C56.9342 54.5559 56.3827 54.7137 55.8763 54.9782L49.173 58.4741L35.0523 54.576C34.6899 54.4776 34.3095 54.4776 33.9472 54.576L19.8264 58.4741L13.1232 54.9782C12.6167 54.7137 12.0652 54.5559 11.5003 54.5138C10.9353 54.4717 10.368 54.5462 9.83062 54.7329C9.29325 54.9196 8.79639 55.215 8.36843 55.6021C7.94046 55.9892 7.58976 56.4605 7.33637 56.9891L0.457933 71.3469C0.204455 71.8754 0.0532322 72.4509 0.0129009 73.0404C-0.0274305 73.6299 0.0439193 74.2219 0.222876 74.7827C0.401832 75.3434 0.68489 75.8619 1.05588 76.3084C1.42688 76.755 1.87854 77.1209 2.38508 77.3854L9.66242 81.1851L24.6187 92.331C24.8391 92.4946 25.0868 92.6138 25.3491 92.6825L42.5991 97.1825C42.9604 97.2771 43.3389 97.2724 43.6979 97.1689C44.0569 97.0654 44.3841 96.8666 44.6476 96.5919L59.4907 81.1007L66.6117 77.3854C67.634 76.8513 68.4112 75.9156 68.7726 74.7838C69.134 73.652 69.0499 72.4168 68.5388 71.3497H68.5415ZM53.747 80.735L44.4724 72.9838C44.0569 72.6366 43.533 72.462 43.0016 72.4937C42.4701 72.5254 41.9687 72.761 41.5938 73.1554C36.7934 78.201 31.4432 77.5625 28.031 75.3125L39.6855 63.5001H48.2593L55.5932 78.8029L53.747 80.735ZM11.1934 59.0001L16.7107 61.8744L9.81875 76.2322L4.31223 73.3607L11.1934 59.0001ZM42.459 92.5054L26.7965 88.4216L13.5356 78.5385L21.0825 62.7885L34.4997 59.0788L37.1411 59.8072L25.0122 72.0922L24.9907 72.1176C24.5341 72.594 24.1859 73.1713 23.9717 73.8069C23.7575 74.4425 23.6829 75.1202 23.7532 75.79C23.8236 76.4597 24.0372 77.1044 24.3783 77.6765C24.7193 78.2486 25.1791 78.7335 25.7238 79.0954C31.2654 82.7882 37.9524 82.1891 43.2191 77.6891L50.6716 83.9357L42.459 92.5054ZM59.1699 76.2294L52.2915 61.8857L57.8061 59.0001L64.6872 73.3607L59.1699 76.2294ZM35.5186 102.293C35.4021 102.779 35.1333 103.211 34.7549 103.52C34.3765 103.828 33.9101 103.997 33.4297 103.997C33.2525 103.997 33.076 103.974 32.9041 103.93L21.6727 100.999C21.41 100.931 21.1621 100.812 20.9423 100.648L13.8402 95.3544C13.4035 94.9966 13.1159 94.4769 13.0372 93.9034C12.9586 93.3299 13.095 92.7468 13.4181 92.2756C13.7411 91.8044 14.2259 91.4814 14.7714 91.3739C15.317 91.2663 15.8813 91.3825 16.3468 91.6982L23.1147 96.7438L33.9607 99.5676C34.5153 99.7123 34.9922 100.081 35.2864 100.593C35.5805 101.104 35.6679 101.717 35.5293 102.296L35.5186 102.293Z" fill="#CB164A"/>
</svg>
