<svg width="76" height="76" viewBox="0 0 76 76" fill="none" xmlns="http://www.w3.org/2000/svg">
<path d="M19.922 41.887C19.922 49.3479 25.9923 55.414 33.449 55.414C40.9099 55.414 46.976 49.3437 46.976 41.887H51.976C51.976 52.102 43.6635 60.414 33.449 60.414C23.234 60.414 14.922 52.1015 14.922 41.887C14.922 31.6725 23.2345 23.36 33.449 23.36V28.36C25.9881 28.36 19.922 34.4303 19.922 41.887ZM33.449 70.336C17.761 70.336 5 57.574 5 41.887C5 26.2 17.762 13.438 33.449 13.438V8.438C15.004 8.438 0 23.446 0 41.887C0 60.332 15.004 75.336 33.449 75.336C51.894 75.336 66.898 60.332 66.898 41.887H61.898C61.898 57.575 49.136 70.336 33.449 70.336ZM42.7224 29.078L39.8786 18.363L58.2416 0L61.8236 13.492L75.3156 17.0779L56.9526 35.4409L46.2646 32.605L35.2136 43.656L31.6784 40.1208L42.7224 29.078ZM45.449 19.8632L47.5506 27.7694L55.4568 29.8671L65.6448 19.6791L57.7386 17.5775L55.637 9.6713L45.449 19.8593V19.8632Z" fill="#CB164A"/>
</svg>
