<svg width="72" height="72" viewBox="0 0 72 72" fill="none" xmlns="http://www.w3.org/2000/svg">
<path d="M61.5095 10.4631C54.7407 3.71979 45.7401 0.00411423 36.1506 0C16.39 0 0.308888 16.0042 0.300977 35.6757C0.298675 41.9638 1.94903 48.1019 5.08592 53.5125L0 72L19.0043 67.0391C24.2404 69.8819 30.1358 71.3799 36.1352 71.3823H36.1505H36.1506C55.908 71.3823 71.9916 55.3752 72 35.7047C72.0033 26.1709 68.2775 17.2068 61.5095 10.4631ZM36.1506 65.3565H36.139C30.7914 65.3537 25.5474 63.9244 20.9734 61.2224L19.8848 60.5799L8.60725 63.5236L11.6182 52.5811L10.909 51.4593C7.92607 46.7376 6.35134 41.281 6.35359 35.678C6.36014 19.3277 19.7262 6.026 36.1619 6.026C44.121 6.02929 51.6016 9.11778 57.2276 14.7226C62.8533 20.3274 65.9492 27.7781 65.9469 35.7021C65.9399 52.053 52.5734 65.3565 36.1506 65.3565Z" fill="#E0E0E0"/>
<path d="M1.646 69.9488L6.49959 52.3058C3.50523 47.1423 1.93056 41.2842 1.93245 35.2845C1.9403 16.512 17.287 1.23926 36.1433 1.23926C45.2952 1.24337 53.8848 4.78914 60.343 11.2246C66.8026 17.6599 70.3579 26.2139 70.3541 35.3111C70.3463 54.0842 54.9986 69.3582 36.1447 69.3582C36.1433 69.3582 36.1456 69.3582 36.1447 69.3582H36.1294C30.4041 69.3564 24.7784 67.9256 19.7819 65.2146L1.646 69.9488Z" fill="url(#paint0_linear_38_40)"/>
<path fill-rule="evenodd" clip-rule="evenodd" d="M27.2921 20.5296C26.6288 19.0616 25.9305 19.0322 25.2995 19.0065C24.7834 18.9845 24.1926 18.9859 23.6027 18.9859C23.0123 18.9859 22.0529 19.2067 21.2416 20.0888C20.4298 20.9709 18.1421 23.1033 18.1421 27.4402C18.1421 31.7776 21.3154 35.9686 21.7577 36.5572C22.2005 37.145 27.8834 46.3295 36.8835 49.8628C44.3634 52.7993 45.8855 52.2152 47.509 52.0682C49.1326 51.9213 52.7478 49.9363 53.4857 47.8778C54.2237 45.8197 54.2237 44.0556 54.0023 43.6868C53.7809 43.3195 53.1905 43.0991 52.305 42.6583C51.4194 42.2175 47.0663 40.0846 46.2545 39.7907C45.4427 39.4968 44.8523 39.3499 44.2619 40.2325C43.6716 41.1141 41.9756 43.0991 41.459 43.6868C40.9424 44.2759 40.4258 44.3494 39.5402 43.9086C38.6547 43.4664 35.8028 42.5365 32.4197 39.5335C29.7874 37.1972 28.0102 34.3117 27.4936 33.4292C26.9771 32.5476 27.4383 32.0701 27.8825 31.6306C28.28 31.2357 28.768 30.6016 29.2108 30.0868C29.6527 29.5721 29.8003 29.2047 30.0955 28.617C30.3906 28.0283 30.2431 27.5136 30.0217 27.0728C29.8003 26.632 28.0794 22.2727 27.2921 20.5296Z" fill="white"/>
<path d="M61.217 10.3496C54.5258 3.68372 45.6286 0.0107648 36.1493 0.0065918C16.6155 0.0065918 0.71892 15.8271 0.711068 35.2728C0.708766 41.4887 2.34017 47.5563 5.44104 52.9048L0.413574 71.18L19.1997 66.276C24.3757 69.0861 30.2035 70.567 36.1341 70.5693H36.1491H36.1493C55.6799 70.5693 71.5787 54.746 71.587 35.3012C71.5903 25.8771 67.9073 17.0159 61.217 10.3496ZM36.1493 64.6129H36.1378C30.8515 64.6101 25.6677 63.1973 21.1462 60.5262L20.0701 59.8912L8.922 62.801L11.8984 51.9841L11.1973 50.8752C8.24861 46.2077 6.69195 40.8137 6.69425 35.2751C6.70068 19.1126 19.9133 5.96353 36.1604 5.96353C44.0282 5.96676 51.4227 9.01982 56.9843 14.5603C62.5454 20.1007 65.6058 27.4659 65.6034 35.2991C65.5965 51.4621 52.3834 64.6129 36.1493 64.6129Z" fill="white"/>
<defs>
<linearGradient id="paint0_linear_38_40" x1="36.0001" y1="69.9488" x2="36.0001" y2="1.23937" gradientUnits="userSpaceOnUse">
<stop stop-color="#20B038"/>
<stop offset="1" stop-color="#60D66A"/>
</linearGradient>
</defs>
</svg>
