<svg width="72" height="72" viewBox="0 0 72 72" fill="none" xmlns="http://www.w3.org/2000/svg">
<rect width="72" height="72" rx="16" fill="#ECEBFF"/>
<path d="M17.2163 17.7554C16.6921 17.0358 17.1823 16 18.0268 16H28.4428C28.7601 16.0038 29.0716 16.081 29.3499 16.2248C29.6283 16.3687 29.8651 16.5747 30.0396 16.825L33.3935 21.4083L26.6469 30.6667L17.2163 17.7554ZM35.5 60C32.8121 60 30.1846 59.2473 27.9497 57.8372C25.7148 56.4271 23.9729 54.4228 22.9443 52.0778C21.9156 49.7328 21.6465 47.1524 22.1709 44.663C22.6953 42.1736 23.9896 39.8869 25.8903 38.0921C27.7909 36.2974 30.2124 35.0751 32.8487 34.5799C35.4849 34.0847 38.2175 34.3389 40.7008 35.3102C43.184 36.2815 45.3066 37.9264 46.7999 40.0368C48.2932 42.1473 49.0902 44.6285 49.0902 47.1667C49.0902 50.5703 47.6584 53.8345 45.1097 56.2412C42.5611 58.6479 39.1044 60 35.5 60ZM35.5 51.0533L38.3151 52.4513C38.4731 52.5231 38.6487 52.5532 38.8233 52.5384C38.9979 52.5236 39.1651 52.4644 39.3069 52.3671C39.4488 52.2698 39.5601 52.1381 39.629 51.9858C39.6979 51.8336 39.7219 51.6666 39.6984 51.5025L39.1597 48.5417L41.4409 46.4425C41.562 46.3228 41.6466 46.1743 41.6856 46.0129C41.7246 45.8514 41.7165 45.683 41.6622 45.5255C41.608 45.368 41.5095 45.2274 41.3774 45.1185C41.2453 45.0096 41.0844 44.9365 40.9118 44.9071L37.7618 44.4762L36.3542 41.7812C36.2711 41.6357 36.1478 41.5142 35.9974 41.4294C35.847 41.3447 35.6751 41.3 35.5 41.3C35.3249 41.3 35.153 41.3447 35.0026 41.4294C34.8522 41.5142 34.7289 41.6357 34.6458 41.7812L33.2382 44.4762L30.0882 44.9071C29.9156 44.9365 29.7547 45.0096 29.6226 45.1185C29.4905 45.2274 29.392 45.368 29.3378 45.5255C29.2835 45.683 29.2754 45.8514 29.3144 46.0129C29.3534 46.1743 29.438 46.3228 29.5591 46.4425L31.8403 48.5417L31.3016 51.5025C31.2781 51.6666 31.3021 51.8336 31.371 51.9858C31.4399 52.1381 31.5512 52.2698 31.6931 52.3671C31.8349 52.4644 32.0021 52.5236 32.1767 52.5384C32.3513 52.5532 32.5269 52.5231 32.6849 52.4513L35.5 51.0533ZM35.5 31.1021C38.06 31.0993 40.5874 31.6446 42.8921 32.6971L53.7837 17.7554C54.3079 17.0358 53.8177 16 52.9732 16H42.5572C42.2399 16.0038 41.9284 16.081 41.6501 16.2248C41.3717 16.3687 41.1349 16.5747 40.9604 16.825L29.9037 31.9958C31.7027 31.4031 33.5946 31.1009 35.5 31.1021Z" fill="black"/>
</svg>
