<svg width="72" height="72" viewBox="0 0 72 72" fill="none" xmlns="http://www.w3.org/2000/svg">
<rect width="72" height="72" rx="16" fill="#ECEBFF"/>
<path d="M17.0779 34.7505L22.8722 36.9873C22.3676 38.225 21.9473 39.491 21.6139 40.7778C21.5636 40.9689 21.5667 41.1688 21.6232 41.3584C21.6796 41.5481 21.7875 41.721 21.9363 41.8608L28.1202 47.6215C28.2704 47.76 28.4564 47.8603 28.6602 47.9128C28.864 47.9653 29.079 47.9683 29.2844 47.9214C30.6678 47.61 32.0288 47.2176 33.3592 46.7468L35.7637 52.1368C35.8225 52.2692 35.9155 52.3861 36.0345 52.4771C36.1534 52.5681 36.2947 52.6303 36.4458 52.6583C36.5968 52.6864 36.7529 52.6793 36.9003 52.6377C37.0477 52.5961 37.1818 52.5214 37.2907 52.42L40.5057 49.4293C41.1259 48.8511 41.6086 48.1582 41.9225 47.3955C42.2365 46.6327 42.3747 45.8171 42.3282 45.0015L42.1715 42.169C48.8971 37.4163 55.1257 29.3647 56.9884 16.1146C57.0127 15.9644 56.9987 15.8111 56.9476 15.6669C56.8966 15.5227 56.8098 15.3916 56.6944 15.2843C56.579 15.1769 56.4381 15.0962 56.2831 15.0487C56.1281 15.0012 55.9632 14.9882 55.8018 15.0107C41.558 16.7352 32.9024 22.5084 27.7709 28.7773L24.7484 28.6482C23.8727 28.605 22.997 28.7332 22.1778 29.0245C21.3587 29.3158 20.6144 29.7637 19.993 30.3394L16.7734 33.3384C16.6665 33.4398 16.5878 33.564 16.5443 33.7001C16.5008 33.8362 16.4937 33.9802 16.5238 34.1195C16.5538 34.2587 16.62 34.389 16.7166 34.499C16.8132 34.609 16.9372 34.6953 17.0779 34.7505ZM40.8684 24.8827C41.4123 24.3799 42.1041 24.0383 42.8565 23.9008C43.6089 23.7633 44.3883 23.8361 45.0962 24.1101C45.8042 24.3841 46.409 24.847 46.8345 25.4404C47.26 26.0338 47.4871 26.7311 47.4871 27.4444C47.4871 28.1577 47.26 28.855 46.8345 29.4484C46.409 30.0418 45.8042 30.5047 45.0962 30.7787C44.3883 31.0527 43.6089 31.1256 42.8565 30.9881C42.1041 30.8506 41.4123 30.5089 40.8684 30.0061C40.5053 29.6705 40.2171 29.2714 40.0205 28.8317C39.8239 28.3921 39.7226 27.9206 39.7226 27.4444C39.7226 26.9682 39.8239 26.4968 40.0205 26.0571C40.2171 25.6175 40.5053 25.2183 40.8684 24.8827ZM14.0017 53.9612C14.3331 48.288 17.2929 45.1639 18.99 43.8227C19.0717 43.7636 19.1705 43.7286 19.2737 43.7222C19.377 43.7157 19.4799 43.7381 19.5694 43.7864C19.6589 43.8348 19.7308 43.9069 19.776 43.9935C19.8211 44.0801 19.8374 44.1773 19.8228 44.2726C19.659 45.1264 19.6319 45.998 19.7422 46.8593C19.8347 47.5662 20.1791 48.224 20.7205 48.7276C21.2618 49.2312 21.9689 49.5515 22.7289 49.6376C23.661 49.7492 24.6057 49.7309 25.532 49.5834C25.6376 49.5661 25.7463 49.5796 25.8433 49.622C25.9404 49.6645 26.0209 49.7338 26.0738 49.8205C26.1268 49.9072 26.1497 50.007 26.1392 50.1063C26.1288 50.2055 26.0856 50.2993 26.0156 50.3748C24.5738 51.9327 21.2154 54.686 15.1167 54.9984C14.968 55.0063 14.8193 54.9848 14.6802 54.9355C14.5411 54.8861 14.4148 54.81 14.3095 54.7121C14.2043 54.6142 14.1224 54.4966 14.0694 54.3673C14.0163 54.2379 13.9933 54.0995 14.0017 53.9612Z" fill="black"/>
</svg>
