<svg width="72" height="72" viewBox="0 0 72 72" fill="none" xmlns="http://www.w3.org/2000/svg">
<rect width="72" height="72" rx="16" fill="#ECEBFF"/>
<path d="M27.9807 35.7445C26.7607 37.4362 25.5408 38.4503 24.3909 38.6889C24.2647 38.7102 24.1338 38.7273 23.9889 38.7273C23.1219 38.7273 21.9486 38.3012 20.5254 37.4894C20.9741 35.2204 21.3807 32.6573 21.6028 30.0455C20.7591 29.8282 20.1421 29.1293 20.1421 28.2942C20.1421 27.2843 21.0395 26.4726 22.1403 26.4726C23.2481 26.4726 24.1455 27.2843 24.1455 28.2942C24.1455 28.8396 23.8767 29.319 23.4631 29.6577C24.4517 31.1725 25.917 33.2412 27.9807 35.7445ZM51.9919 28.294C51.9919 27.2841 51.0945 26.4724 49.9867 26.4724C48.8859 26.4724 47.9885 27.2841 47.9885 28.294C47.9885 28.8394 48.2526 29.3188 48.6709 29.6576C47.6823 31.1681 46.224 33.2348 44.1533 35.738C45.3733 37.4296 46.5932 38.4481 47.7501 38.6888C47.8693 38.7101 48.0071 38.7272 48.1521 38.7272C49.0261 38.7272 50.1923 38.3011 51.6109 37.4936C51.1692 35.2245 50.7602 32.6614 50.5335 30.0431C51.3678 29.8258 51.9919 29.127 51.9919 28.294ZM60.5528 29.0035C59.2067 29.0035 58.113 30.0006 58.113 31.2342C58.113 31.9159 58.4542 32.521 58.987 32.9301C55.3669 36.1856 50.3584 40.0632 47.5542 39.4861C42.9946 38.5423 39.3206 28.8569 37.4371 22.4585C38.4958 21.9898 39.225 21.014 39.225 19.8741C39.225 18.2868 37.8134 17 36.0723 17C34.3312 17 32.9196 18.2869 32.9196 19.8741C32.9196 21.0139 33.6488 21.9898 34.7075 22.4585C32.8238 28.8503 29.1499 38.542 24.5904 39.4861C21.7836 40.0635 16.7821 36.1922 13.1618 32.9345C13.6947 32.5254 14.0406 31.9203 14.0406 31.2321C14.0406 29.9986 12.9469 29.0015 11.6007 29.0015C10.2475 29.0036 9.15381 30.0007 9.15381 31.2343C9.15381 32.4679 10.2475 33.465 11.6007 33.465C11.6077 33.465 11.6194 33.4586 11.6241 33.4586C13.2694 36.7866 15.0876 41.64 15.4171 47.3348H56.7226C57.0521 41.6356 58.8633 36.7797 60.5086 33.4586C60.5203 33.4586 60.539 33.465 60.5507 33.465C61.9062 33.465 63 32.4658 63 31.2343C63 30.0007 61.906 29.0035 60.5528 29.0035ZM56.6616 51.9091V48.1508H15.4752V51.9091C15.4752 52.5121 16.0104 53 16.6718 53H55.465C56.1264 53 56.6616 52.5121 56.6616 51.9091Z" fill="black"/>
</svg>
